<svg width="65" height="62" viewBox="0 0 65 62" fill="none" xmlns="http://www.w3.org/2000/svg">
<path d="M26.6536 14.6989L29.6378 11.4185L42.5797 6.57009L45.286 13.7941L36.8873 16.9405C34.8594 16.4044 32.6625 16.4637 30.5628 17.2503C28.4631 18.0369 26.7753 19.433 25.5915 21.1722L17.1927 24.3186L15.3885 19.5026L24.753 15.9944C25.4772 15.7231 26.1294 15.2814 26.6536 14.6989ZM10.7063 21.2567L18.8252 42.9287C19.8203 45.585 22.7291 46.9581 25.3116 45.9906L53.4049 35.4661C55.9875 34.4986 57.2781 31.5523 56.283 28.896L47.262 4.81601C46.2668 2.15969 43.3581 0.78661 40.7755 1.7541L27.8336 6.60249C27.1093 6.87383 26.4572 7.3155 25.9329 7.89805L22.9488 11.1784L20.6077 12.0555L20.1566 10.8515C19.9085 10.1893 19.1788 9.84481 18.535 10.086L13.8528 11.8401C13.209 12.0813 12.8852 12.8204 13.1333 13.4826L13.5843 14.6866C11.0018 15.6541 9.71117 18.6004 10.7063 21.2567ZM40.8348 25.0725C42.2049 28.7296 40.4331 32.7743 36.8775 34.1063C33.3219 35.4383 29.3287 33.5534 27.9587 29.8962C26.5886 26.2391 28.3604 22.1944 31.916 20.8623C35.4715 19.5303 39.4647 21.4153 40.8348 25.0725Z" fill="#D46CF9"/>
<path d="M8.72 50.34C7.68 50.34 7.16 49.8933 7.16 49C7.16 48.7067 7.2 48.3733 7.28 48C7.37333 47.6133 7.5 47.12 7.66 46.52C7.84667 45.8933 7.98667 45.36 8.08 44.92C8.17333 44.48 8.22 44.0867 8.22 43.74C8.22 42.8333 7.82 42.38 7.02 42.38C6.80667 42.38 6.58667 42.4067 6.36 42.46L4.76 50H1.88L4.6 37.28L7.56 36.88L6.58 41.5H6.74C7.26 41.5 7.74 41.32 8.18 40.96C8.62 40.6 8.96 40.1533 9.2 39.62C9.45333 39.0733 9.58 38.54 9.58 38.02C9.58 37.4067 9.39333 36.9067 9.02 36.52C8.66 36.12 8.11333 35.92 7.38 35.92C6.3 35.92 5.35333 36.1133 4.54 36.5C3.72667 36.8867 3.09333 37.4467 2.64 38.18C2.2 38.9133 1.98 39.78 1.98 40.78C1.98 41.2733 2.02667 41.62 2.12 41.82C2.21333 42.0067 2.26 42.1133 2.26 42.14C1.54 42.14 1 41.9933 0.64 41.7C0.293333 41.3933 0.12 40.8933 0.12 40.2C0.12 39.3467 0.466667 38.52 1.16 37.72C1.86667 36.9067 2.76667 36.2533 3.86 35.76C4.95333 35.2533 6.04667 35 7.14 35C8.14 35 8.98 35.1467 9.66 35.44C10.34 35.7333 10.8467 36.1267 11.18 36.62C11.5133 37.1 11.68 37.6267 11.68 38.2C11.68 38.8267 11.4867 39.4533 11.1 40.08C10.7133 40.7067 10.1867 41.22 9.52 41.62C10.0267 41.7667 10.38 42.0133 10.58 42.36C10.7933 42.6933 10.9 43.1133 10.9 43.62C10.9 44.0067 10.8533 44.42 10.76 44.86C10.6667 45.2867 10.5333 45.82 10.36 46.46C10.2533 46.8733 10.1533 47.28 10.06 47.68C9.96667 48.08 9.92 48.4133 9.92 48.68C9.92 48.9867 9.98667 49.26 10.12 49.5C10.2667 49.74 10.46 49.9067 10.7 50C9.88667 50.2267 9.22667 50.34 8.72 50.34ZM14.8717 50.12C13.8851 50.12 13.1184 49.8667 12.5717 49.36C12.0251 48.84 11.7517 48.0333 11.7517 46.94C11.7517 46.02 11.9317 45.0067 12.2917 43.9C12.6517 42.7933 13.2384 41.84 14.0517 41.04C14.8651 40.2267 15.8984 39.82 17.1517 39.82C18.6184 39.82 19.3517 40.46 19.3517 41.74C19.3517 42.4867 19.1384 43.1733 18.7117 43.8C18.2851 44.4267 17.7184 44.9333 17.0117 45.32C16.3051 45.6933 15.5517 45.9067 14.7517 45.96C14.7251 46.36 14.7117 46.6267 14.7117 46.76C14.7117 47.4133 14.8251 47.86 15.0517 48.1C15.2784 48.3267 15.6451 48.44 16.1517 48.44C16.8717 48.44 17.4851 48.2733 17.9917 47.94C18.5117 47.6067 19.0784 47.1 19.6917 46.42H20.3717C18.8917 48.8867 17.0584 50.12 14.8717 50.12ZM14.9117 45C15.4051 44.9733 15.8717 44.8 16.3117 44.48C16.7651 44.16 17.1251 43.7533 17.3917 43.26C17.6717 42.7667 17.8117 42.2467 17.8117 41.7C17.8117 41.1533 17.6451 40.88 17.3117 40.88C16.8317 40.88 16.3584 41.3 15.8917 42.14C15.4384 42.98 15.1117 43.9333 14.9117 45ZM23.2275 55C22.5875 55 22.0542 54.8333 21.6275 54.5C21.2008 54.1667 20.9875 53.6867 20.9875 53.06C20.9875 52.3 21.2942 51.6867 21.9075 51.22C22.5208 50.7667 23.3008 50.3867 24.2475 50.08L24.4875 49.02C23.8075 49.7533 23.0075 50.12 22.0875 50.12C21.3275 50.12 20.6942 49.86 20.1875 49.34C19.6808 48.82 19.4275 48.0067 19.4275 46.9C19.4275 45.9133 19.6208 44.88 20.0075 43.8C20.4075 42.7067 20.9942 41.7867 21.7675 41.04C22.5542 40.28 23.4875 39.9 24.5675 39.9C25.1142 39.9 25.5208 39.9933 25.7875 40.18C26.0542 40.3667 26.1875 40.6133 26.1875 40.92V41.04L26.4075 40H29.2875L27.3075 49.28C27.9475 49.0667 28.4608 48.7467 28.8475 48.32C29.2342 47.8933 29.5608 47.26 29.8275 46.42H30.6675C30.3075 47.6067 29.8208 48.48 29.2075 49.04C28.5942 49.5867 27.9008 49.96 27.1275 50.16L26.8275 51.6C26.5608 52.8933 26.1008 53.78 25.4475 54.26C24.7942 54.7533 24.0542 55 23.2275 55ZM23.3875 48.18C23.6942 48.18 24.0075 48.04 24.3275 47.76C24.6475 47.48 24.8675 47.1 24.9875 46.62L26.0075 41.88C26.0075 41.72 25.9408 41.56 25.8075 41.4C25.6742 41.2267 25.4675 41.14 25.1875 41.14C24.6542 41.14 24.1742 41.4533 23.7475 42.08C23.3208 42.6933 22.9875 43.44 22.7475 44.32C22.5075 45.1867 22.3875 45.9533 22.3875 46.62C22.3875 47.2867 22.4808 47.7133 22.6675 47.9C22.8675 48.0867 23.1075 48.18 23.3875 48.18ZM22.7675 53.44C22.9942 53.44 23.2142 53.2867 23.4275 52.98C23.6408 52.6733 23.8075 52.2333 23.9275 51.66L24.0475 51.08C22.7408 51.56 22.0875 52.1267 22.0875 52.78C22.0875 52.9533 22.1475 53.1067 22.2675 53.24C22.3875 53.3733 22.5542 53.44 22.7675 53.44ZM31.1842 40H34.0642L33.8042 41.24C34.2576 40.84 34.6642 40.5333 35.0242 40.32C35.3976 40.1067 35.7976 40 36.2242 40C36.6509 40 36.9842 40.1467 37.2242 40.44C37.4776 40.7333 37.6042 41.0867 37.6042 41.5C37.6042 41.8867 37.4776 42.2267 37.2242 42.52C36.9709 42.8133 36.6176 42.96 36.1642 42.96C35.8709 42.96 35.6709 42.8933 35.5642 42.76C35.4709 42.6133 35.3976 42.4067 35.3442 42.14C35.3042 41.9667 35.2642 41.84 35.2242 41.76C35.1842 41.68 35.1109 41.64 35.0042 41.64C34.7242 41.64 34.4842 41.7 34.2842 41.82C34.0976 41.9267 33.8509 42.12 33.5442 42.4L31.9442 50H29.0642L31.1842 40ZM39.7438 50.12C38.9838 50.12 38.3504 49.86 37.8438 49.34C37.3371 48.82 37.0837 48.0067 37.0837 46.9C37.0837 45.9133 37.2771 44.88 37.6638 43.8C38.0638 42.7067 38.6504 41.7867 39.4238 41.04C40.2104 40.28 41.1438 39.9 42.2238 39.9C42.7704 39.9 43.1771 39.9933 43.4438 40.18C43.7104 40.3667 43.8438 40.6133 43.8438 40.92V41.06L44.0638 40H46.9438L45.5038 46.8C45.4504 47 45.4238 47.2133 45.4238 47.44C45.4238 48.0133 45.6971 48.3 46.2438 48.3C46.6171 48.3 46.9371 48.1267 47.2038 47.78C47.4838 47.4333 47.7038 46.98 47.8638 46.42H48.7038C48.2104 47.86 47.5971 48.84 46.8638 49.36C46.1438 49.8667 45.4171 50.12 44.6838 50.12C44.1238 50.12 43.6704 49.9667 43.3238 49.66C42.9904 49.34 42.7904 48.88 42.7238 48.28C42.3371 48.8267 41.9038 49.2733 41.4238 49.62C40.9571 49.9533 40.3971 50.12 39.7438 50.12ZM41.0438 48.18C41.3771 48.18 41.7038 48.0267 42.0238 47.72C42.3571 47.4 42.5838 46.9667 42.7038 46.42L43.6638 41.9C43.6638 41.7267 43.5971 41.56 43.4638 41.4C43.3304 41.2267 43.1238 41.14 42.8438 41.14C42.3104 41.14 41.8304 41.4533 41.4038 42.08C40.9771 42.6933 40.6438 43.44 40.4038 44.32C40.1638 45.1867 40.0438 45.9533 40.0438 46.62C40.0438 47.2867 40.1371 47.7133 40.3238 47.9C40.5238 48.0867 40.7638 48.18 41.0438 48.18ZM59.6911 50.12C58.9844 50.12 58.4711 49.9067 58.1511 49.48C57.8311 49.0533 57.6711 48.5133 57.6711 47.86C57.6711 47.58 57.7044 47.2667 57.7711 46.92C57.8378 46.56 57.9044 46.2133 57.9711 45.88C58.0511 45.5467 58.1044 45.3333 58.1311 45.24C58.2378 44.7733 58.3378 44.3133 58.4311 43.86C58.5244 43.4067 58.5711 43.04 58.5711 42.76C58.5711 42.08 58.3311 41.74 57.8511 41.74C57.5044 41.74 57.1978 41.9133 56.9311 42.26C56.6644 42.5933 56.4511 43.0333 56.2911 43.58L54.9311 50H52.0511L53.5111 43.1C53.5511 42.94 53.5711 42.7733 53.5711 42.6C53.5711 42.0133 53.3711 41.72 52.9711 41.72C52.5978 41.72 52.2711 41.8933 51.9911 42.24C51.7244 42.5733 51.5111 43.02 51.3511 43.58L49.9911 50H47.1111L49.2311 40H52.1111L51.8911 41.04C52.5711 40.28 53.3844 39.9 54.3311 39.9C55.5044 39.9 56.1911 40.4733 56.3911 41.62C57.1244 40.4867 58.0511 39.92 59.1711 39.92C59.8511 39.92 60.3911 40.1067 60.7911 40.48C61.1911 40.8533 61.3911 41.42 61.3911 42.18C61.3911 42.5667 61.3444 43 61.2511 43.48C61.1578 43.9467 61.0244 44.52 60.8511 45.2C60.7444 45.6133 60.6444 46.02 60.5511 46.42C60.4711 46.8067 60.4311 47.1133 60.4311 47.34C60.4311 47.6067 60.4911 47.8133 60.6111 47.96C60.7311 48.1067 60.9378 48.18 61.2311 48.18C61.5511 48.18 61.7711 48.14 61.8911 48.06C61.8111 48.74 61.5644 49.2533 61.1511 49.6C60.7511 49.9467 60.2644 50.12 59.6911 50.12Z" fill="white"/>
</svg>
